<svg id="visual" viewBox="0 0 540 960" width="540" height="960" xmlns="http://www.w3.org/2000/svg" xmlns:xlink="http://www.w3.org/1999/xlink" version="1.1"><rect x="0" y="0" width="540" height="960" fill="#001220"></rect><defs><linearGradient id="grad1_0" x1="0%" y1="0%" x2="100%" y2="100%"><stop offset="30%" stop-color="#001220" stop-opacity="1"></stop><stop offset="70%" stop-color="#001220" stop-opacity="1"></stop></linearGradient></defs><defs><linearGradient id="grad2_0" x1="0%" y1="0%" x2="100%" y2="100%"><stop offset="30%" stop-color="#001220" stop-opacity="1"></stop><stop offset="70%" stop-color="#001220" stop-opacity="1"></stop></linearGradient></defs><g transform="translate(540, 0)"><path d="M0 216C-29.2 214.1 -58.3 212.2 -82.7 199.6C-107 186.9 -126.5 163.4 -140.7 140.7C-154.9 118 -163.9 96 -175.5 72.7C-187.2 49.4 -201.6 24.7 -216 0L0 0Z" fill="#001122"></path></g><g transform="translate(0, 960)"><path d="M0 -216C30.9 -216.1 61.8 -216.3 82.7 -199.6C103.5 -182.8 114.2 -149.2 125.2 -125.2C136.1 -101.1 147.4 -86.6 162.6 -67.4C177.8 -48.1 196.9 -24 216 0L0 0Z" fill="#001122"></path></g></svg>