<?xml version="1.0" encoding="UTF-8"?>
<!DOCTYPE svg PUBLIC "-//W3C//DTD SVG 1.1//EN" "http://www.w3.org/Graphics/SVG/1.1/DTD/svg11.dtd">
<svg xmlns="http://www.w3.org/2000/svg" version="1.1" width="425px" height="429px" style="shape-rendering:geometricPrecision; text-rendering:geometricPrecision; image-rendering:optimizeQuality; fill-rule:evenodd; clip-rule:evenodd" xmlns:xlink="http://www.w3.org/1999/xlink">
<g><path style="opacity:0.998" fill="#6601fe" d="M 328.5,227.5 C 328.034,223.363 328.034,219.029 328.5,214.5C 328.827,204.985 328.494,195.652 327.5,186.5C 327.59,183.848 326.924,181.515 325.5,179.5C 317.483,162.475 305.15,150.475 288.5,143.5C 286.99,142.164 285.323,140.997 283.5,140C 261.073,132.865 240.073,122.865 220.5,110C 209.06,101.284 202.726,89.7836 201.5,75.5C 204.504,47.6612 219.171,38.4945 245.5,48C 299.429,65.5941 330.596,102.427 339,158.5C 341.872,182.572 338.372,205.572 328.5,227.5 Z"/></g>
<g><path style="opacity:0.999" fill="#d8d7d9" d="M 182.5,81.5 C 181.011,77.7643 180.344,73.7643 180.5,69.5C 180.334,63.1579 180.5,56.8246 181,50.5C 181.335,48.4971 182.168,46.8304 183.5,45.5C 190.7,43.3562 195.2,46.0229 197,53.5C 197.244,65.3422 192.411,74.6755 182.5,81.5 Z"/></g>
<g><path style="opacity:0.998" fill="#6602fe" d="M 179.5,46.5 C 179.275,54.1259 179.608,61.7926 180.5,69.5C 180.344,73.7643 181.011,77.7643 182.5,81.5C 187.983,101.287 198.65,117.787 214.5,131C 233.844,143.597 252.01,157.763 269,173.5C 275.078,180.733 280.911,188.066 286.5,195.5C 290.956,204.766 294.622,214.432 297.5,224.5C 298.383,233.467 298.716,242.467 298.5,251.5C 297.499,256.839 296.499,262.172 295.5,267.5C 293.849,269.402 293.516,271.402 294.5,273.5C 259.112,302.344 219.112,311.344 174.5,300.5C 192.056,296.224 208.056,288.39 222.5,277C 231.515,268.141 237.848,257.641 241.5,245.5C 241.253,244.287 240.586,243.62 239.5,243.5C 241.922,240.718 242.922,237.385 242.5,233.5C 240.686,212.544 232.852,194.21 219,178.5C 206.229,166.734 194.562,154.067 184,140.5C 175.23,128.028 169.063,114.362 165.5,99.5C 165.644,89.3682 165.644,79.0348 165.5,68.5C 165.5,67.8333 165.5,67.1667 165.5,66.5C 166.924,64.4855 167.59,62.1522 167.5,59.5C 167.895,56.3138 168.895,53.3138 170.5,50.5C 170.376,49.8933 170.043,49.56 169.5,49.5C 172.505,47.7234 175.838,46.7234 179.5,46.5 Z"/></g>
<g><path style="opacity:0.998" fill="#d7d5d9" d="M 169.5,49.5 C 170.043,49.56 170.376,49.8933 170.5,50.5C 168.895,53.3138 167.895,56.3138 167.5,59.5C 166.076,61.5145 165.41,63.8478 165.5,66.5C 165.5,67.1667 165.5,67.8333 165.5,68.5C 164.254,78.6858 164.254,89.0192 165.5,99.5C 152.403,113.316 148.736,129.316 154.5,147.5C 153.833,147.833 153.167,148.167 152.5,148.5C 142.329,128.644 138.329,107.644 140.5,85.5C 142.926,78.1156 144.593,70.4489 145.5,62.5C 145.672,61.5084 145.338,60.8417 144.5,60.5C 151.986,55.1079 160.32,51.4413 169.5,49.5 Z"/></g>
<g><path style="opacity:1" fill="#b89ae3" d="M 179.5,46.5 C 180.568,45.5655 181.901,45.2322 183.5,45.5C 182.168,46.8304 181.335,48.4971 181,50.5C 180.5,56.8246 180.334,63.1579 180.5,69.5C 179.608,61.7926 179.275,54.1259 179.5,46.5 Z"/></g>
<g><path style="opacity:1" fill="#6602fe" d="M 144.5,60.5 C 145.338,60.8417 145.672,61.5084 145.5,62.5C 142.195,69.6813 140.528,77.348 140.5,85.5C 138.329,107.644 142.329,128.644 152.5,148.5C 153.111,151.659 154.444,153.659 156.5,154.5C 161.564,161.071 167.231,167.237 173.5,173C 183.88,181.715 194.547,190.048 205.5,198C 221.702,211.999 226.368,228.833 219.5,248.5C 203.42,266.838 183.086,274.005 158.5,270C 141.295,265.985 126.795,257.485 115,244.5C 94.9374,220.815 83.7708,193.482 81.5,162.5C 81.8195,157.637 81.4861,152.97 80.5,148.5C 88.4576,109.241 109.791,79.9076 144.5,60.5 Z"/></g>
<g><path style="opacity:1" fill="#a373e8" d="M 167.5,59.5 C 167.59,62.1522 166.924,64.4855 165.5,66.5C 165.41,63.8478 166.076,61.5145 167.5,59.5 Z"/></g>
<g><path style="opacity:1" fill="#c0a9e0" d="M 145.5,62.5 C 144.593,70.4489 142.926,78.1156 140.5,85.5C 140.528,77.348 142.195,69.6813 145.5,62.5 Z"/></g>
<g><path style="opacity:1" fill="#863ff2" d="M 165.5,68.5 C 165.644,79.0348 165.644,89.3682 165.5,99.5C 164.254,89.0192 164.254,78.6858 165.5,68.5 Z"/></g>
<g><path style="opacity:1" fill="#d7d6d8" d="M 325.5,179.5 C 325.41,182.152 326.076,184.485 327.5,186.5C 327.66,197.854 327.326,209.187 326.5,220.5C 325.881,224.356 325.881,228.023 326.5,231.5C 319.904,247.346 309.904,260.679 296.5,271.5C 295.566,270.432 295.232,269.099 295.5,267.5C 296.499,262.172 297.499,256.839 298.5,251.5C 299.656,243.677 299.823,235.677 299,227.5C 298.768,226.263 298.268,225.263 297.5,224.5C 294.622,214.432 290.956,204.766 286.5,195.5C 292.309,178.372 292.975,161.039 288.5,143.5C 305.15,150.475 317.483,162.475 325.5,179.5 Z"/></g>
<g><path style="opacity:0.612" fill="#985af2" d="M 154.5,147.5 C 155.167,149.833 155.833,152.167 156.5,154.5C 154.444,153.659 153.111,151.659 152.5,148.5C 153.167,148.167 153.833,147.833 154.5,147.5 Z"/></g>
<g><path style="opacity:1" fill="#8a55d9" d="M 80.5,148.5 C 81.4861,152.97 81.8195,157.637 81.5,162.5C 80.8333,159.167 80.1667,155.833 79.5,152.5C 79.4326,151.041 79.7659,149.708 80.5,148.5 Z"/></g>
<g><path style="opacity:1" fill="#d6d4d7" d="M 79.5,152.5 C 80.1667,155.833 80.8333,159.167 81.5,162.5C 83.7708,193.482 94.9374,220.815 115,244.5C 126.795,257.485 141.295,265.985 158.5,270C 183.086,274.005 203.42,266.838 219.5,248.5C 226.372,247.654 233.038,245.987 239.5,243.5C 240.586,243.62 241.253,244.287 241.5,245.5C 237.848,257.641 231.515,268.141 222.5,277C 208.056,288.39 192.056,296.224 174.5,300.5C 134.134,288.886 105.301,263.886 88,225.5C 78.4,201.933 75.5667,177.599 79.5,152.5 Z"/></g>
<g><path style="opacity:1" fill="#b798e2" d="M 325.5,179.5 C 326.924,181.515 327.59,183.848 327.5,186.5C 326.076,184.485 325.41,182.152 325.5,179.5 Z"/></g>
<g><path style="opacity:1" fill="#c7b9dc" d="M 327.5,186.5 C 328.494,195.652 328.827,204.985 328.5,214.5C 327.833,216.5 327.167,218.5 326.5,220.5C 327.326,209.187 327.66,197.854 327.5,186.5 Z"/></g>
<g><path style="opacity:1" fill="#8f53ef" d="M 328.5,214.5 C 328.034,219.029 328.034,223.363 328.5,227.5C 328.34,229.153 327.674,230.486 326.5,231.5C 325.881,228.023 325.881,224.356 326.5,220.5C 327.167,218.5 327.833,216.5 328.5,214.5 Z"/></g>
<g><path style="opacity:1" fill="#ad84e6" d="M 297.5,224.5 C 298.268,225.263 298.768,226.263 299,227.5C 299.823,235.677 299.656,243.677 298.5,251.5C 298.716,242.467 298.383,233.467 297.5,224.5 Z"/></g>
<g><path style="opacity:0.047" fill="#a17adf" d="M 295.5,267.5 C 295.232,269.099 295.566,270.432 296.5,271.5C 296.167,272.5 295.5,273.167 294.5,273.5C 293.516,271.402 293.849,269.402 295.5,267.5 Z"/></g>
<g><path style="opacity:0.996" fill="#dbdbda" d="M 158.5,339.5 C 165.475,339.326 171.142,341.826 175.5,347C 174.037,349.631 172.037,351.798 169.5,353.5C 166.946,351.056 163.946,349.389 160.5,348.5C 158.792,348.703 157.459,349.536 156.5,351C 162.281,354.707 168.281,358.04 174.5,361C 180.099,370.15 177.765,376.484 167.5,380C 158.717,381.573 151.384,379.073 145.5,372.5C 146.8,369.568 148.8,367.234 151.5,365.5C 155.461,369.32 160.128,371.154 165.5,371C 168.003,369.451 168.003,367.784 165.5,366C 157.822,363.922 151.655,359.756 147,353.5C 146.245,350.697 146.578,348.03 148,345.5C 151.069,342.554 154.569,340.554 158.5,339.5 Z"/></g>
<g><path style="opacity:0.998" fill="#d9d9d8" d="M 186.5,340.5 C 190.226,340.177 193.893,340.511 197.5,341.5C 201.43,350.125 205.264,358.792 209,367.5C 213,358.833 217,350.167 221,341.5C 224.394,340.544 227.894,340.211 231.5,340.5C 231.5,353.5 231.5,366.5 231.5,379.5C 228.167,379.5 224.833,379.5 221.5,379.5C 221.666,374.821 221.499,370.155 221,365.5C 219.194,369.918 217.194,374.251 215,378.5C 211,379.833 207,379.833 203,378.5C 201,373.833 199,369.167 197,364.5C 196.501,369.489 196.334,374.489 196.5,379.5C 193.167,379.5 189.833,379.5 186.5,379.5C 186.5,366.5 186.5,353.5 186.5,340.5 Z"/></g>
<g><path style="opacity:0.999" fill="#d8d8d7" d="M 242.5,340.5 C 249.508,340.334 256.508,340.5 263.5,341C 272.017,343.869 274.85,349.703 272,358.5C 270.437,361.728 267.937,363.895 264.5,365C 260.514,365.499 256.514,365.666 252.5,365.5C 252.5,370.167 252.5,374.833 252.5,379.5C 249.167,379.5 245.833,379.5 242.5,379.5C 242.5,366.5 242.5,353.5 242.5,340.5 Z M 252.5,349.5 C 255.187,349.336 257.854,349.503 260.5,350C 262.698,351.67 263.032,353.67 261.5,356C 258.518,356.498 255.518,356.665 252.5,356.5C 252.5,354.167 252.5,351.833 252.5,349.5 Z"/></g>
</svg>
